<?xml version="1.0" encoding="UTF-8" standalone="no"?>
<!DOCTYPE svg PUBLIC "-//W3C//DTD SVG 1.1//EN" "http://www.w3.org/Graphics/SVG/1.1/DTD/svg11.dtd">
<!-- Created with Vectornator (http://vectornator.io/) -->
<svg height="1000.0px" stroke-miterlimit="10" style="fill-rule:nonzero;clip-rule:evenodd;stroke-linecap:round;stroke-linejoin:round;" version="1.1" viewBox="0 0 1000 1000" width="1000.0px" xml:space="preserve" xmlns="http://www.w3.org/2000/svg" xmlns:xlink="http://www.w3.org/1999/xlink">
<defs/>
<g id="Layer-1">
<g opacity="1">
<path d="M116.72 138.845L66.3368 138.845L66.3368 94.335C97.5555 94.953 128.465 83.2074 130.32 47.661L181.013 47.661L181.013 262.795L116.72 262.795" fill="#f7a11a" fill-rule="nonzero" opacity="1" stroke="none"/>
<path d="M271.887 217.975C303.415 217.975 304.961 178.101 304.961 155.227C304.961 132.972 303.415 92.4802 272.506 92.4802C240.669 92.4802 239.431 132.045 239.431 155.227C239.431 177.791 240.669 217.975 271.887 217.975ZM271.887 45.1882C311.143 45.1882 363.689 72.0801 363.689 155.227C363.689 238.374 311.143 265.267 272.196 265.267C233.249 265.267 180.702 238.374 180.702 155.227C180.702 72.0801 233.249 45.1882 271.887 45.1882" fill="#ec008c" fill-rule="nonzero" opacity="1" stroke="none"/>
<path d="M414.072 123.7C414.072 140.391 428.908 152.755 444.981 152.755C461.673 152.755 475.892 141.318 475.892 124.008C475.892 107.008 462.601 94.026 445.599 94.026C429.217 94.026 414.072 106.699 414.072 123.7ZM415.926 206.229C417.163 210.866 420.872 215.193 425.509 217.666C430.455 220.138 436.018 220.756 440.346 220.756C468.164 220.756 475.583 195.102 478.982 177.482L478.365 176.863C464.764 188.61 448.382 193.865 430.145 193.865C388.108 193.865 357.198 169.755 357.198 125.554C357.198 73.3163 398.926 45.1882 447.764 45.1882C510.819 45.1882 538.329 93.4077 538.329 147.5C538.329 215.81 506.183 265.267 440.346 265.267C400.471 265.267 366.162 248.575 359.361 206.229" fill="#f15a29" fill-rule="nonzero" opacity="1" stroke="none"/>
<path d="M643.114 213.029C660.422 213.029 687.006 201.591 687.006 152.446C687.006 103.299 660.422 91.8622 643.114 91.8622C625.803 91.8622 599.22 103.299 599.22 152.446C599.22 201.591 625.803 213.029 643.114 213.029ZM643.114 36.8424C710.186 36.8424 755.008 85.0617 755.008 152.446C755.008 219.829 710.186 268.048 643.114 268.048C576.04 268.048 531.22 219.829 531.22 152.446C531.22 85.0617 576.04 36.8424 643.114 36.8424" fill="#231f20" fill-rule="nonzero" opacity="1" stroke="none"/>
<path d="M736.458 209.629L839.08 98.6621L742.332 98.6621L742.332 42.0974L928.718 42.0974L928.718 91.5532L825.169 206.229L933.663 206.229L933.663 262.795L736.458 262.795" fill="#231f20" fill-rule="nonzero" opacity="1" stroke="none"/>
</g>
<path d="M254.575 374.11L170.145 567.954L167.735 808.16L826.584 814.172L832.976 557.44L741.623 374.844L254.575 374.11Z" fill="#ffffff" fill-rule="nonzero" opacity="1" stroke="none"/>
<path d="M877.418 578.528C876.969 576.445 876.309 574.413 875.449 572.464L801.06 398.876C783.91 358.768 742.187 332.836 694.715 332.836L305.286 332.836C257.852 332.836 216.09 358.768 198.959 398.876L124.492 572.464C122.799 576.379 121.935 580.603 121.952 584.868L121.952 931.413C121.952 948.812 136.057 962.917 153.456 962.917L216.464 962.917C233.863 962.917 247.968 948.812 247.968 931.413L247.968 899.909L752.032 899.909L752.032 931.413C752.032 948.812 766.137 962.917 783.536 962.917L846.544 962.917C863.944 962.917 878.048 948.812 878.048 931.413L878.048 584.868C878.051 582.739 877.84 580.615 877.418 578.528ZM279.472 773.892C244.674 773.892 216.464 745.683 216.464 710.884C216.464 676.086 244.674 647.876 279.472 647.876C314.27 647.876 342.48 676.086 342.48 710.884C342.48 745.683 314.27 773.892 279.472 773.892ZM720.528 773.892C685.73 773.892 657.52 745.683 657.52 710.884C657.52 676.086 685.73 647.876 720.528 647.876C755.327 647.876 783.536 676.086 783.536 710.884C783.536 745.683 755.327 773.892 720.528 773.892ZM201.224 553.364L256.809 423.706C263.936 407.048 283.41 395.844 305.286 395.844L694.715 395.844C716.571 395.844 736.064 407.048 743.192 423.706L798.776 553.364L201.224 553.364Z" fill="#000000" fill-rule="nonzero" opacity="1" stroke="none"/>
</g>
</svg>
