<?xml version="1.0" encoding="UTF-8" standalone="no"?>
<!DOCTYPE svg PUBLIC "-//W3C//DTD SVG 1.1//EN" "http://www.w3.org/Graphics/SVG/1.1/DTD/svg11.dtd">
<!-- Created with Vectornator (http://vectornator.io/) -->
<svg height="1000.0px" stroke-miterlimit="10" style="fill-rule:nonzero;clip-rule:evenodd;stroke-linecap:round;stroke-linejoin:round;" version="1.1" viewBox="0 0 1000 1000" width="1000.0px" xml:space="preserve" xmlns="http://www.w3.org/2000/svg" xmlns:xlink="http://www.w3.org/1999/xlink">
<defs/>
<clipPath id="ArtboardFrame">
<rect height="1000" width="1000" x="0" y="0"/>
</clipPath>
<g clip-path="url(#ArtboardFrame)" id="Layer-1">
<g opacity="1">
<path d="M190.981 208.796L150.359 208.796L150.359 172.909C175.529 173.408 200.45 163.938 201.946 135.279L242.817 135.279L242.817 308.73L190.981 308.73" fill="#f7a11a" fill-rule="nonzero" opacity="1" stroke="none"/>
<path d="M316.084 272.594C341.504 272.594 342.75 240.446 342.75 222.004C342.75 204.061 341.504 171.414 316.583 171.414C290.914 171.414 289.917 203.313 289.917 222.004C289.917 240.196 290.914 272.594 316.084 272.594ZM316.084 133.285C347.734 133.285 390.1 154.966 390.1 222.004C390.1 289.041 347.734 310.723 316.333 310.723C284.932 310.723 242.567 289.041 242.567 222.004C242.567 154.966 284.932 133.285 316.084 133.285" fill="#ec008c" fill-rule="nonzero" opacity="1" stroke="none"/>
<path d="M430.721 196.585C430.721 210.042 442.682 220.01 455.641 220.01C469.099 220.01 480.563 210.79 480.563 196.834C480.563 183.127 469.847 172.66 456.139 172.66C442.932 172.66 430.721 182.878 430.721 196.585ZM432.216 263.124C433.213 266.862 436.203 270.351 439.942 272.345C443.929 274.338 448.415 274.836 451.904 274.836C474.333 274.836 480.314 254.153 483.055 239.947L482.557 239.448C471.591 248.919 458.383 253.156 443.679 253.156C409.787 253.156 384.866 233.717 384.866 198.08C384.866 155.963 418.509 133.285 457.885 133.285C508.723 133.285 530.903 172.162 530.903 215.774C530.903 270.849 504.985 310.723 451.904 310.723C419.755 310.723 392.093 297.265 386.61 263.124" fill="#f15a29" fill-rule="nonzero" opacity="1" stroke="none"/>
<path d="M615.386 268.606C629.34 268.606 650.773 259.385 650.773 219.761C650.773 180.136 629.34 170.916 615.386 170.916C601.429 170.916 579.996 180.136 579.996 219.761C579.996 259.385 601.429 268.606 615.386 268.606ZM615.386 126.556C669.463 126.556 705.6 165.433 705.6 219.761C705.6 274.089 669.463 312.966 615.386 312.966C561.307 312.966 525.171 274.089 525.171 219.761C525.171 165.433 561.307 126.556 615.386 126.556" fill="#231f20" fill-rule="nonzero" opacity="1" stroke="none"/>
<path d="M690.644 265.865L773.383 176.398L695.38 176.398L695.38 130.793L845.653 130.793L845.653 170.667L762.167 263.124L849.641 263.124L849.641 308.73L690.644 308.73" fill="#231f20" fill-rule="nonzero" opacity="1" stroke="none"/>
</g>
<path d="M302.126 398.478L234.055 554.764L232.112 748.43L763.309 753.278L768.462 546.288L694.808 399.069L302.126 398.478Z" fill="#ffffff" fill-rule="nonzero" opacity="1" stroke="none"/>
<path d="M804.293 563.29C803.931 561.611 803.399 559.972 802.706 558.4L742.73 418.446C728.903 386.108 695.263 365.201 656.989 365.201L343.012 365.201C304.769 365.201 271.097 386.108 257.286 418.446L197.247 558.4C195.882 561.557 195.185 564.962 195.199 568.402L195.199 847.803C195.199 861.831 206.571 873.203 220.599 873.203L271.399 873.203C285.427 873.203 296.799 861.831 296.799 847.803L296.799 822.403L703.201 822.403L703.201 847.803C703.201 861.831 714.573 873.203 728.601 873.203L779.401 873.203C793.429 873.203 804.801 861.831 804.801 847.803L804.801 568.402C804.804 566.685 804.633 564.973 804.293 563.29ZM322.199 720.802C294.143 720.802 271.399 698.058 271.399 670.002C271.399 641.946 294.143 619.202 322.199 619.202C350.256 619.202 373 641.946 373 670.002C373 698.058 350.256 720.802 322.199 720.802ZM677.801 720.802C649.745 720.802 627.001 698.058 627.001 670.002C627.001 641.946 649.745 619.202 677.801 619.202C705.857 619.202 728.601 641.946 728.601 670.002C728.601 698.058 705.857 720.802 677.801 720.802ZM259.112 543.002L303.927 438.464C309.674 425.034 325.374 416.001 343.012 416.001L656.989 416.001C674.61 416.001 690.326 425.034 696.073 438.464L740.888 543.002L259.112 543.002Z" fill="#000000" fill-rule="nonzero" opacity="1" stroke="none"/>
<path d="M5.68434e-14 499.88C5.68434e-14 223.737 223.858-0.120452 500-0.120452C776.142-0.120452 1000 223.737 1000 499.88C1000 776.022 776.142 999.88 500 999.88C223.858 999.88 5.68434e-14 776.022 5.68434e-14 499.88Z" fill="none" opacity="0" stroke="#007aff" stroke-linecap="butt" stroke-linejoin="round" stroke-width="1"/>
</g>
</svg>
